# Blender v2.79 (sub 0) OBJ File: 'BOID2.blend'
# www.blender.org
v 0.000000 0.000000 -1.000000
v -0.866025 0.000000 0.500000
v 0.866025 0.000000 0.500000
v 0.000000 0.000000 -1.000000
v 0.000000 0.866025 0.500000
v 0.000000 -0.866025 0.500000
v -0.216506 0.000000 -0.250000
v 0.000000 0.000000 0.000000
v 0.216506 0.000000 -0.250000
v 0.000000 0.216506 -0.250000
v 0.000000 0.000000 -0.000000
v 0.000000 -0.216506 -0.250000
vt 0.000093 0.000093
vt 0.288714 0.500000
vt 0.108326 0.562488
vt 0.000093 0.000093
vt 0.288714 0.500000
vt 0.108326 0.562488
vt 0.324792 0.687465
vt 0.000093 0.999907
vt 0.865957 0.500000
vt 0.324792 0.687465
vt 0.000093 0.999907
vt 0.865957 0.500000
vn 0.0000 1.0000 0.0000
vn 1.0000 -0.0000 -0.0000
s off
f 2/1/1 8/2/1 7/3/1
f 5/4/2 11/5/2 10/6/2
f 10/6/2 12/7/2 4/8/2
f 10/6/2 11/5/2 12/7/2
f 11/5/2 6/9/2 12/7/2
f 7/3/1 9/10/1 1/11/1
f 7/3/1 8/2/1 9/10/1
f 8/2/1 3/12/1 9/10/1
