# Blender v2.79 (sub 0) OBJ File: 'cube.blend'
# www.blender.org
mtllib cubeM.mtl
v 0.500000 -0.500000 -0.500000
v 0.500000 -0.500000 0.500000
v -0.500000 -0.500000 0.500000
v -0.500000 -0.500000 -0.500000
v 0.500000 0.500000 -0.500000
v 0.500000 0.500000 0.500000
v -0.500000 0.500000 0.500000
v -0.500000 0.500000 -0.500000
vt 0.500000 0.500000
vt 0.250043 0.250043
vt 0.500000 0.250043
vt 0.250043 0.999913
vt 0.500000 0.749957
vt 0.500000 0.999913
vt 0.250043 0.500000
vt 0.250043 0.000087
vt 0.500000 0.000087
vt 0.250043 0.749957
vt 0.749957 0.250043
vt 0.000087 0.250043
vt 0.000087 0.000087
vt 0.749957 0.000087
vn 0.0000 -1.0000 0.0000
vn 0.0000 1.0000 0.0000
vn 0.0000 -0.0000 1.0000
vn 0.0000 0.0000 -1.0000
vn 1.0000 -0.0000 0.0000
vn -1.0000 -0.0000 -0.0000
usemtl Material
s off
f 2/1/1 4/2/1 1/3/1
f 8/4/2 6/5/2 5/6/2
f 6/5/3 3/7/3 2/1/3
f 1/3/4 8/8/4 5/9/4
f 6/5/3 7/10/3 3/7/3
f 1/3/4 4/2/4 8/8/4
usemtl Material.002
f 5/9/5 2/11/5 1/3/5
f 2/1/1 3/7/1 4/2/1
f 3/12/6 7/13/6 8/8/6
usemtl Material.001
f 3/12/6 8/8/6 4/2/6
f 8/4/2 7/10/2 6/5/2
f 5/9/5 6/14/5 2/11/5
