# Blender v2.79 (sub 0) OBJ File: 'MECHACOCKPIT3-3.blend'
# www.blender.org
v -22.056086 13.182360 -90.201309
v 21.982580 13.182360 -90.201309
v -12.132374 31.548801 -90.201309
v 12.058867 31.548801 -90.201309
v -12.132374 51.169464 -90.201309
v 12.058867 51.169464 -90.201309
vt 0.331659 0.483491
vt 1.000000 0.000000
vt 0.000000 0.000000
vt 0.331659 1.000000
vt 0.668342 0.483491
vt 0.668343 1.000000
vn 0.0000 0.0000 1.0000
s off
f 4/1/1 1/2/1 2/3/1
f 6/4/1 3/5/1 4/1/1
f 4/1/1 3/5/1 1/2/1
f 6/4/1 5/6/1 3/5/1
