# Blender v2.79 (sub 0) OBJ File: 'MECHACOCKPIT3-4.blend'
# www.blender.org
v 971.804443 -15.347694 -279.588593
v 989.534790 -252.232376 -173.352097
v 883.863342 79.361115 -53.731209
v 901.593750 -157.523575 52.505280
v 727.536133 -66.639122 -353.190186
v 745.266541 -303.523804 -246.953674
v 639.595093 28.069687 -127.332802
v 657.325500 -208.815002 -21.096313
v 979.458496 -117.608688 -233.727249
v 983.624695 -173.270813 -208.764252
v 895.683655 -78.562012 17.093124
v 891.517395 -22.899872 -7.869873
v 651.415344 -129.853439 -56.508469
v 647.249146 -74.191299 -81.471458
v 739.356384 -224.562241 -282.365845
v 735.190186 -168.900116 -307.328857
v 927.833862 32.006714 -166.659897
v 945.564331 -204.877975 -60.423401
v 683.565613 -19.284714 -240.261490
v 701.296021 -256.169403 -134.024994
v 691.219666 -121.545708 -194.400146
v 695.385864 -177.207840 -169.437164
v 935.487915 -70.254288 -120.798561
v 939.654175 -125.916412 -95.835571
v 943.696533 14.923340 -207.399567
v 717.158630 -273.252777 -174.764664
v 707.082275 -138.629074 -235.139816
v 711.248474 -194.291214 -210.176834
v 961.426880 -221.961349 -101.163071
v 699.428223 -36.368088 -281.001160
v 951.350586 -87.337654 -161.538223
v 955.516785 -142.999786 -136.575241
v 819.039429 -151.242996 -132.180298
v 814.873230 -95.580872 -157.143280
v 830.735840 -112.664238 -197.882950
v 834.902039 -168.326370 -172.919968
v 755.519531 -108.043991 -175.026581
v 771.382141 -125.127365 -215.766235
v 775.548340 -180.789490 -190.803253
v 759.685730 -163.706116 -150.063599
v 808.075684 -4.735252 -197.885986
v 823.938293 -21.818626 -238.625656
v 748.721985 -17.198380 -215.769287
v 764.584595 -34.281754 -256.508942
v 827.121948 -64.366257 -219.543762
v 811.259338 -47.282883 -178.804092
v 751.905579 -59.746006 -196.687378
v 767.768188 -76.829376 -237.427048
v 887.834106 12.010506 -173.853439
v 903.696716 -5.072861 -214.593109
v 906.880371 -47.620483 -195.511215
v 891.017761 -30.537117 -154.771545
v 782.711182 22.582016 -132.744232
v 785.894836 -19.965599 -113.662338
v 862.469604 39.327774 -108.711700
v 865.653259 -3.219833 -89.629807
v 850.687927 -89.746689 -280.066498
v 847.504272 -47.199066 -299.148407
v 930.446350 -73.000908 -256.033997
v 927.262695 -30.453300 -275.115845
v 780.362671 31.785126 -99.291275
v 782.856506 -1.543488 -84.343964
v 842.839417 44.902496 -80.465996
v 845.333252 11.573898 -65.518677
v 765.868896 54.584641 -89.284668
v 783.599304 -182.300049 16.951828
v 853.809937 -40.124161 -315.142059
v 871.540344 -277.008850 -208.905548
v 861.463989 -142.385162 -269.280701
v 865.630188 -198.047287 -244.317719
v 773.522949 -47.676346 -43.423325
v 777.689148 -103.338470 -18.460342
v 827.569824 -229.654449 -95.976860
v 809.839417 7.230240 -202.213348
v 843.432434 -246.737823 -136.716522
v 825.702026 -9.853134 -242.953018
v 839.771423 70.102707 -67.016747
v 945.442932 -261.490784 -186.637634
v 935.366577 -126.867104 -247.012787
v 939.532776 -182.529236 -222.049789
v 883.741943 22.748291 -179.945435
v 899.604614 5.664925 -220.685104
v 857.501892 -166.781982 39.219757
v 927.712524 -24.606110 -292.874115
v 847.425537 -32.158295 -21.155411
v 851.591736 -87.820419 3.807587
v 901.472412 -214.136383 -73.708939
v 917.335022 -231.219757 -114.448608
v 884.887451 65.678772 -47.595047
v 640.619141 14.387344 -121.196640
v 728.560242 -80.321465 -347.054016
v 972.828491 -29.030037 -273.452423
v 928.857971 18.324371 -160.523743
v 684.589722 -32.967056 -234.125336
v 944.720581 1.240997 -201.263397
v 700.452332 -50.050430 -274.864990
v 755.558716 52.900726 -54.366455
v 854.834045 -53.806503 -309.005890
v 829.461304 68.418777 -32.098541
v 928.736572 -38.288452 -286.737976
v 975.713135 -67.569298 -256.168579
v 887.772034 27.139511 -30.311203
v 643.503784 -24.151917 -103.912796
v 731.444824 -118.860725 -329.770172
v 931.742554 -20.214890 -143.239899
v 687.474304 -71.506317 -216.841492
v 947.605225 -37.298264 -183.979553
v 703.336914 -88.589691 -257.581146
v 758.443359 14.361465 -37.082611
v 857.718628 -92.345764 -291.722046
v 832.345947 29.879517 -14.814697
v 931.621216 -76.827713 -269.454102
vt 0.333331 0.475216
vt 0.166665 0.366848
vt 0.166666 0.475216
vt 0.777523 0.168061
vt 0.666740 0.000000
vt 0.666708 0.168061
vt 0.893461 0.433472
vt 1.000000 0.325104
vt 0.893461 0.325104
vt 0.444452 0.000000
vt 0.333339 0.058683
vt 0.444452 0.058683
vt 0.161021 0.366847
vt 0.333339 0.262956
vt 0.161021 0.262956
vt 0.439880 0.591525
vt 0.333339 0.650208
vt 0.439880 0.650208
vt 0.593194 0.000000
vt 0.522779 0.058683
vt 0.593194 0.058683
vt 0.522779 0.000000
vt 0.893461 0.578538
vt 1.000000 0.509863
vt 0.893461 0.509863
vt 1.000000 0.433472
vt 0.925897 0.000000
vt 0.855640 0.168061
vt 0.928905 0.167998
vt 0.855672 0.000000
vt 0.166666 0.620282
vt 0.333331 0.551607
vt 0.166666 0.551607
vt 0.106540 0.551607
vt 0.106540 0.475216
vt 0.106540 0.620282
vt 0.833336 0.509863
vt 0.666671 0.433472
vt 0.666671 0.509863
vt 0.666671 0.578538
vt 0.500005 0.591525
vt 0.666671 0.650208
vt 0.666671 0.591525
vt 0.161021 0.204325
vt 0.333339 0.041803
vt 0.161021 0.041803
vt 0.833336 0.433472
vt 0.666671 0.325104
vt 0.106540 0.366848
vt 0.000000 0.475216
vt 0.000000 0.366848
vt 0.000000 0.620282
vt 0.000000 0.551607
vt 0.228615 0.895977
vt 0.168743 0.802212
vt 0.168743 0.895977
vt 0.833336 0.578538
vt 0.500005 0.650208
vt 0.333339 0.204325
vt 0.833336 0.325104
vt 0.920762 0.726600
vt 0.860637 0.650208
vt 0.860637 0.726599
vt 0.168743 0.892495
vt 0.087746 0.816295
vt 0.087747 0.892482
vt 0.713018 0.774887
vt 0.632021 0.851278
vt 0.713018 0.851278
vt 0.288731 0.691952
vt 0.228615 0.770947
vt 0.288731 0.770948
vt 0.228615 0.856525
vt 0.288731 0.856526
vt 0.800764 0.774887
vt 0.800764 0.851279
vt 0.000000 0.816281
vt 0.000001 0.892467
vt 0.752017 0.936857
vt 0.691891 0.851279
vt 0.691891 0.936858
vt 0.333339 0.912871
vt 0.414336 0.854231
vt 0.333340 0.854230
vt 0.713015 0.650208
vt 0.632020 0.708601
vt 0.713016 0.708602
vt 0.920762 0.851278
vt 0.860637 0.792886
vt 0.860637 0.851279
vt 0.168742 0.750201
vt 0.087747 0.691952
vt 0.087746 0.750188
vt 0.168742 0.816308
vt 0.920762 0.917563
vt 0.860637 0.917564
vt 0.632021 0.774886
vt 0.860637 0.792884
vt 0.800764 0.854245
vt 0.860636 0.912884
vt 0.860637 0.854244
vt 0.523178 0.912765
vt 0.632019 0.999866
vt 0.632019 0.912764
vt 0.523177 0.854134
vt 0.632019 0.854133
vt 0.414336 0.912872
vt 0.523177 0.854232
vt 0.511214 0.718974
vt 0.414336 0.760466
vt 0.523177 0.760467
vt 0.523177 0.760383
vt 0.860636 0.760480
vt 0.920762 0.650219
vt 0.980474 0.756360
vt 0.980474 0.650208
vt 0.800765 1.000000
vt 0.800764 0.912884
vt 0.691891 0.938395
vt 0.632019 0.851279
vt 0.632019 0.938395
vt 0.414336 0.999988
vt 0.523177 0.912872
vt 0.807322 0.718937
vt 0.800764 0.760480
vt 0.632019 0.760382
vt 0.535140 0.719059
vt 0.222056 0.760682
vt 0.228615 0.802212
vt 0.060170 0.204325
vt 0.439880 0.325104
vt 0.500005 0.493166
vt 0.500005 0.325104
vt 0.060170 0.041802
vt 0.666671 0.493166
vt 0.855621 0.266420
vt 0.777505 0.266420
vt 0.928887 0.266357
vt 0.522779 0.325104
vt 0.444453 0.157042
vt 0.444453 0.325104
vt 0.593194 0.325104
vt 0.522779 0.157042
vt 0.333339 0.325104
vt 0.439880 0.493166
vt 0.060170 0.366847
vt 0.060170 0.262956
vt 0.666690 0.266420
vt 0.666679 0.325103
vt 0.777494 0.325103
vt 0.000000 0.366847
vt 0.000000 0.262956
vt 0.925836 0.325103
vt 0.855610 0.325103
vt 0.000000 0.204325
vt 0.000000 0.041802
vt 0.593194 0.157042
vt 0.333339 0.493166
vt 0.333339 0.157042
vt 0.666679 0.157042
vt 0.647425 0.058683
vt 0.647425 0.157042
vt 0.000000 0.041445
vt 0.647425 0.325104
vt 0.666679 0.325104
vt 0.060341 0.000000
vt 0.893461 0.650208
vt 0.833336 0.631430
vt 0.833336 0.650208
vt 0.000000 0.691952
vt 0.106540 0.673174
vt 0.000000 0.673174
vt 0.666671 0.631430
vt 0.666671 0.650208
vt 0.166666 0.691952
vt 0.106540 0.691952
vt 0.333331 0.673174
vt 0.166666 0.673174
vt 0.333339 0.041445
vt 0.161192 0.000000
vt 1.000000 0.631430
vt 0.893461 0.631430
vt 0.666679 0.058683
vt 0.647425 0.000000
vt 0.982973 0.266357
vt 0.979922 0.325103
vt 0.425956 0.718974
vt 0.518590 0.650208
vt 0.417739 0.650208
vt 0.982991 0.167998
vt 0.854221 0.718937
vt 0.804027 0.650208
vt 0.620398 0.719058
vt 0.527764 0.650208
vt 0.175157 0.760682
vt 0.225349 0.691952
vt 0.171117 0.691952
vt 0.333331 0.366848
vt 0.777555 0.000000
vt 0.333339 0.000000
vt 0.333339 0.366848
vt 0.333339 0.591525
vt 1.000000 0.578538
vt 0.333331 0.620282
vt 0.920762 0.650208
vt 0.228615 0.691952
vt 0.752017 0.851279
vt 0.632019 0.650208
vt 0.920762 0.792885
vt 0.168743 0.691965
vt 0.920762 0.792885
vt 0.523177 0.999867
vt 0.920762 0.756371
vt 0.860637 1.000000
vt 0.691891 0.851279
vt 0.523177 0.999989
vt 0.333331 0.691951
vt 1.000000 0.650208
vt 0.666679 0.000000
vt 0.979983 0.000000
vt 0.858259 0.650209
vt 0.628614 0.650208
vn 0.9387 0.1971 0.2828
vn -0.3379 0.3640 0.8679
vn -0.9387 -0.1971 -0.2828
vn 0.3379 -0.3640 -0.8679
vn -0.0681 0.9103 -0.4083
vn 0.0681 -0.9103 0.4083
vn -0.4426 -0.1970 0.8748
vn 0.9387 0.1971 0.2829
vn 0.0681 -0.9103 0.4082
vn 0.1189 -0.9552 0.2711
vn -0.9387 -0.1971 -0.2829
vn -0.8120 -0.2883 -0.5074
vn -0.0169 0.8458 -0.5332
vn 0.9946 0.0941 0.0439
vn -0.2540 -0.1592 0.9540
vn -0.2019 0.9793 -0.0124
vn -0.2958 0.9544 -0.0413
vn 0.2643 0.4111 0.8725
vn 0.0523 -0.8924 0.4483
vn -0.5531 0.3061 0.7748
vn -0.9688 -0.1582 -0.1910
vn -0.0873 0.9296 -0.3580
vn 0.8933 0.2379 0.3814
vn -0.0681 0.9103 -0.4082
vn 0.2676 -0.0334 0.9630
vn 0.0683 0.9953 0.0682
vn 0.0523 -0.8923 0.4483
s off
f 11/1/1 18/2/1 24/3/1
f 72/4/2 8/5/2 66/6/2
f 28/7/3 6/8/3 26/9/3
f 10/10/4 78/11/4 80/12/4
f 67/13/5 30/14/5 76/15/5
f 88/16/6 2/17/6 29/18/6
f 101/19/4 79/20/4 112/21/4
f 9/22/4 80/12/4 79/20/4
f 108/23/3 16/24/3 27/25/3
f 27/25/3 15/26/3 28/7/3
f 103/27/7 71/28/7 109/29/7
f 14/30/2 72/4/2 71/28/2
f 105/31/1 12/32/1 23/33/1
f 23/33/1 11/1/1 24/3/1
f 31/34/1 24/3/1 32/35/1
f 107/36/1 23/33/1 31/34/1
f 21/37/3 13/38/3 14/39/3
f 103/40/3 21/37/3 14/39/3
f 87/41/6 4/42/6 83/43/6
f 74/44/5 7/45/5 65/46/5
f 22/47/3 8/48/3 13/38/3
f 24/3/1 29/49/1 32/35/1
f 10/50/1 29/49/1 2/51/1
f 101/52/1 31/34/1 9/53/1
f 31/34/1 10/50/1 9/53/1
f 41/54/8 54/55/8 46/56/8
f 106/57/3 27/25/3 21/37/3
f 87/41/6 29/18/6 18/58/6
f 76/15/5 19/59/5 74/44/5
f 28/7/3 20/60/3 22/47/3
f 35/61/3 33/62/3 34/63/3
f 36/64/2 38/65/2 39/66/2
f 37/67/4 33/68/4 40/69/4
f 33/70/5 39/71/5 40/72/5
f 40/72/5 28/73/5 22/74/5
f 21/75/4 40/69/4 22/76/4
f 39/66/2 27/77/2 28/78/2
f 27/79/6 37/80/6 21/81/6
f 44/82/6 41/83/6 43/84/6
f 43/85/4 46/86/4 47/87/4
f 48/88/1 43/89/1 47/90/1
f 45/91/2 44/92/2 48/93/2
f 35/94/2 48/93/2 38/65/2
f 38/95/1 47/90/1 37/96/1
f 47/87/4 34/97/4 37/67/4
f 46/98/3 35/61/3 34/63/3
f 49/99/3 51/100/3 52/101/3
f 51/102/5 57/103/5 45/104/5
f 52/105/5 45/104/5 46/106/5
f 42/107/9 49/108/9 41/83/9
f 63/109/10 53/110/10 55/111/10
f 46/106/5 56/112/5 52/105/5
f 56/113/11 49/99/11 52/101/11
f 55/111/6 41/83/6 49/108/6
f 57/114/2 60/115/2 58/116/2
f 60/117/11 51/100/11 50/118/11
f 45/119/8 58/120/8 42/121/8
f 58/122/6 50/123/6 42/107/6
f 56/113/12 63/124/12 55/125/12
f 54/126/13 64/127/13 56/112/13
f 61/128/14 54/55/14 53/129/14
f 81/130/5 76/15/5 74/44/5
f 26/131/6 73/132/6 20/133/6
f 77/134/5 74/44/5 65/46/5
f 8/48/6 73/132/6 66/135/6
f 85/136/2 72/4/2 86/137/2
f 111/138/15 71/28/15 85/136/15
f 16/139/4 70/140/4 15/141/4
f 104/142/4 69/143/4 16/139/4
f 6/144/6 75/145/6 26/131/6
f 84/146/5 76/15/5 82/147/5
f 70/140/4 6/144/4 15/141/4
f 72/4/2 83/148/2 86/137/2
f 86/137/2 4/149/2 11/150/2
f 1/151/5 82/147/5 25/152/5
f 102/153/2 85/136/2 12/154/2
f 12/154/2 86/137/2 11/150/2
f 17/155/5 77/134/5 3/156/5
f 17/155/5 82/147/5 81/130/5
f 73/132/6 88/16/6 87/41/6
f 73/132/6 83/43/6 66/135/6
f 69/143/4 80/12/4 70/140/4
f 112/21/4 69/143/4 110/157/4
f 68/158/6 88/16/6 75/145/6
f 70/140/4 78/11/4 68/159/4
f 67/160/4 100/161/4 98/162/4
f 77/134/2 89/163/2 3/156/2
f 67/160/4 91/164/4 5/165/4
f 65/46/16 99/166/16 77/134/16
f 30/167/3 94/168/3 19/169/3
f 1/170/1 95/171/1 92/172/1
f 19/169/3 90/173/3 7/174/3
f 17/175/1 95/171/1 25/176/1
f 17/175/1 89/177/1 93/178/1
f 65/46/17 90/179/17 97/180/17
f 30/167/3 91/181/3 96/182/3
f 84/183/4 92/184/4 100/161/4
f 100/161/4 110/157/4 98/162/4
f 99/185/18 102/153/18 89/186/18
f 98/162/4 104/142/4 91/164/4
f 61/187/19 99/188/19 97/189/19
f 96/182/3 106/57/3 94/168/3
f 95/171/1 101/52/1 92/172/1
f 94/168/3 103/40/3 90/173/3
f 93/178/1 107/36/1 95/171/1
f 89/177/1 105/31/1 93/178/1
f 97/190/20 103/27/20 109/29/20
f 91/181/3 108/23/3 96/182/3
f 92/184/4 112/21/4 100/161/4
f 64/191/21 99/192/21 63/124/21
f 62/193/22 111/194/22 64/127/22
f 62/195/23 97/196/23 109/197/23
f 11/1/1 4/198/1 18/2/1
f 72/4/2 13/199/2 8/5/2
f 28/7/3 15/26/3 6/8/3
f 10/10/4 2/200/4 78/11/4
f 67/13/5 5/201/5 30/14/5
f 88/16/6 78/202/6 2/17/6
f 101/19/4 9/22/4 79/20/4
f 9/22/4 10/10/4 80/12/4
f 108/23/3 104/203/3 16/24/3
f 27/25/3 16/24/3 15/26/3
f 103/27/2 14/30/2 71/28/2
f 14/30/2 13/199/2 72/4/2
f 105/31/1 102/204/1 12/32/1
f 23/33/1 12/32/1 11/1/1
f 31/34/1 23/33/1 24/3/1
f 107/36/1 105/31/1 23/33/1
f 21/37/3 22/47/3 13/38/3
f 103/40/3 106/57/3 21/37/3
f 87/41/6 18/58/6 4/42/6
f 74/44/5 19/59/5 7/45/5
f 22/47/3 20/60/3 8/48/3
f 24/3/1 18/2/1 29/49/1
f 10/50/1 32/35/1 29/49/1
f 101/52/1 107/36/1 31/34/1
f 31/34/1 32/35/1 10/50/1
f 41/54/8 53/129/8 54/55/8
f 106/57/3 108/23/3 27/25/3
f 87/41/6 88/16/6 29/18/6
f 76/15/5 30/14/5 19/59/5
f 28/7/3 26/9/3 20/60/3
f 35/61/3 36/205/3 33/62/3
f 36/64/2 35/94/2 38/65/2
f 37/67/4 34/97/4 33/68/4
f 33/70/5 36/206/5 39/71/5
f 40/72/5 39/71/5 28/73/5
f 21/75/4 37/67/4 40/69/4
f 39/66/2 38/65/2 27/77/2
f 27/79/6 38/207/6 37/80/6
f 44/82/6 42/107/6 41/83/6
f 43/85/4 41/208/4 46/86/4
f 48/88/8 44/209/8 43/89/8
f 45/91/2 42/210/2 44/92/2
f 35/94/2 45/91/2 48/93/2
f 38/95/1 48/88/1 47/90/1
f 47/87/4 46/86/4 34/97/4
f 46/98/3 45/211/3 35/61/3
f 49/99/3 50/118/3 51/100/3
f 51/102/5 59/212/5 57/103/5
f 52/105/24 51/102/24 45/104/24
f 42/107/9 50/123/9 49/108/9
f 63/109/10 61/187/10 53/110/10
f 46/106/5 54/126/5 56/112/5
f 56/113/11 55/125/11 49/99/11
f 55/111/6 53/110/6 41/83/6
f 57/114/2 59/213/2 60/115/2
f 60/117/11 59/214/11 51/100/11
f 45/119/8 57/215/8 58/120/8
f 58/122/6 60/216/6 50/123/6
f 56/113/12 64/191/12 63/124/12
f 54/126/13 62/193/13 64/127/13
f 61/128/14 62/195/14 54/55/14
f 81/130/5 82/147/5 76/15/5
f 26/131/6 75/145/6 73/132/6
f 77/134/5 81/130/5 74/44/5
f 8/48/6 20/133/6 73/132/6
f 85/136/2 71/28/2 72/4/2
f 111/138/15 109/29/15 71/28/15
f 16/139/4 69/143/4 70/140/4
f 104/142/4 110/157/4 69/143/4
f 6/144/6 68/158/6 75/145/6
f 84/146/5 67/13/5 76/15/5
f 70/140/4 68/159/4 6/144/4
f 72/4/2 66/6/2 83/148/2
f 86/137/2 83/148/2 4/149/2
f 1/151/5 84/146/5 82/147/5
f 102/153/25 111/138/25 85/136/25
f 12/154/2 85/136/2 86/137/2
f 17/155/5 81/130/5 77/134/5
f 17/155/5 25/152/5 82/147/5
f 73/132/6 75/145/6 88/16/6
f 73/132/6 87/41/6 83/43/6
f 69/143/4 79/20/4 80/12/4
f 112/21/4 79/20/4 69/143/4
f 68/158/6 78/202/6 88/16/6
f 70/140/4 80/12/4 78/11/4
f 67/160/4 84/183/4 100/161/4
f 77/134/26 99/166/26 89/163/26
f 67/160/4 98/162/4 91/164/4
f 65/46/16 97/180/16 99/166/16
f 30/167/3 96/182/3 94/168/3
f 1/170/1 25/176/1 95/171/1
f 19/169/3 94/168/3 90/173/3
f 17/175/1 93/178/1 95/171/1
f 17/175/1 3/217/1 89/177/1
f 65/46/2 7/45/2 90/179/2
f 30/167/3 5/218/3 91/181/3
f 84/183/4 1/219/4 92/184/4
f 100/161/4 112/21/4 110/157/4
f 99/185/18 111/138/18 102/153/18
f 98/162/4 110/157/4 104/142/4
f 61/187/27 63/109/27 99/188/27
f 96/182/3 108/23/3 106/57/3
f 95/171/1 107/36/1 101/52/1
f 94/168/3 106/57/3 103/40/3
f 93/178/1 105/31/1 107/36/1
f 89/177/1 102/204/1 105/31/1
f 97/190/20 90/220/20 103/27/20
f 91/181/3 104/203/3 108/23/3
f 92/184/4 101/19/4 112/21/4
f 64/191/21 111/221/21 99/192/21
f 62/193/22 109/222/22 111/194/22
f 62/195/23 61/128/23 97/196/23
