# Blender v2.79 (sub 0) OBJ File: 'MECHACOCKPIT3-3.blend'
# www.blender.org
v -5.886021 -0.556146 -87.838409
v -5.886021 4.345558 -87.838409
v 5.812514 -0.556146 -87.838409
v 5.812514 4.345558 -87.838409
v 1.913002 -3.381029 -87.838409
v -1.986509 -3.381029 -87.838409
v -1.986509 7.170441 -87.838409
v 1.913002 7.170441 -87.838409
v -8.006519 -4.852233 -88.945877
v -8.006519 8.641645 -88.945877
v 7.933013 -4.852233 -88.945877
v 7.933013 8.641645 -88.945877
v 3.368342 -4.852234 -87.838409
v -3.441849 -4.852234 -87.838409
v -3.441849 8.641645 -87.838409
v 3.368342 8.641645 -87.838409
v -5.886021 -0.556146 -90.201302
v -5.886021 4.345558 -90.201302
v 5.812514 -0.556146 -90.201302
v 5.812514 4.345558 -90.201302
v 1.913002 -3.381029 -90.201302
v -1.986509 -3.381029 -90.201302
v -1.986509 7.170441 -90.201302
v 1.913002 7.170441 -90.201302
v -8.006519 -4.852233 -92.813828
v -8.006519 8.641645 -92.813828
v 7.933013 -4.852233 -92.813828
v 7.933013 8.641645 -92.813828
v 3.368342 -4.852234 -92.813828
v -3.441849 -4.852234 -92.813828
v -3.441849 8.641645 -92.813828
v 3.368342 8.641645 -92.813828
vt 0.246320 0.286761
vt 0.235150 0.423231
vt 0.278640 0.420788
vt 0.186515 0.136566
vt 0.197265 0.000221
vt 0.153612 0.002718
vt 0.186304 0.286936
vt 0.197233 0.423662
vt 0.204507 0.375411
vt 0.246252 0.136755
vt 0.227710 0.375102
vt 0.227835 0.048532
vt 0.204591 0.048304
vt 0.153612 0.421138
vt 0.235412 0.000085
vt 0.000085 0.475946
vt 0.119306 0.500000
vt 0.153442 0.475946
vt 0.279309 0.440108
vt 0.352140 0.460656
vt 0.352140 0.440108
vt 0.279309 0.199560
vt 0.352140 0.350644
vt 0.352140 0.199560
vt 0.000085 0.440059
vt 0.153442 0.440059
vt 0.000085 0.500000
vt 0.119307 0.915921
vt 0.279309 0.110097
vt 0.352140 0.110096
vt 0.000085 0.939975
vt 0.153442 0.939975
vt 0.279309 0.460656
vt 0.352140 0.550119
vt 0.119306 0.416006
vt 0.279309 0.550119
vt 0.352141 0.701204
vt 0.000085 0.000085
vt 0.119306 0.000085
vt 0.279309 0.000085
vt 0.352140 0.089548
vt 0.352140 0.000085
vt 0.000085 0.975861
vt 0.119307 0.999915
vt 0.153442 0.975861
vt 0.279309 0.089548
vt 0.279309 0.350644
vt 0.279139 0.002928
vt 0.000085 0.915921
vt 0.000085 0.416006
vt 0.279309 0.701204
vt 0.000085 0.999915
vn -0.2337 0.1329 0.9632
vn 0.2337 -0.1329 0.9632
vn 0.0000 0.0000 1.0000
vn -0.4629 0.0000 0.8864
vn 0.4629 0.0000 0.8864
vn 0.0000 1.0000 0.0000
vn 0.0000 -1.0000 0.0000
vn 1.0000 0.0000 0.0000
vn -1.0000 0.0000 0.0000
vn 0.5867 0.8098 0.0000
vn -0.5867 -0.8098 0.0000
vn -0.5867 0.8098 0.0000
vn 0.5867 -0.8098 0.0000
vn 0.2337 0.1329 0.9632
vn -0.2337 -0.1329 0.9632
s off
f 2/1/1 15/2/1 10/3/1
f 3/4/2 13/5/2 11/6/2
f 4/7/3 16/8/3 8/9/3
f 10/3/4 1/10/4 2/1/4
f 7/11/3 16/8/3 15/2/3
f 6/12/3 13/5/3 5/13/3
f 3/4/5 12/14/5 4/7/5
f 1/10/3 14/15/3 6/12/3
f 31/16/6 10/17/6 15/18/6
f 23/19/7 8/20/7 7/21/7
f 17/22/8 2/23/8 1/24/8
f 32/25/6 15/18/6 16/26/6
f 26/27/9 9/28/9 10/17/9
f 22/29/10 1/24/10 6/30/10
f 9/28/7 30/31/7 14/32/7
f 24/33/11 4/34/11 8/20/11
f 12/35/6 32/25/6 16/26/6
f 20/36/9 3/37/9 4/34/9
f 27/38/8 12/35/8 11/39/8
f 19/40/12 5/41/12 3/42/12
f 29/43/7 11/44/7 13/45/7
f 21/46/6 6/30/6 5/41/6
f 30/31/7 13/45/7 14/32/7
f 18/47/13 7/21/13 2/23/13
f 2/1/3 7/11/3 15/2/3
f 3/4/3 5/13/3 13/5/3
f 4/7/14 12/14/14 16/8/14
f 10/3/4 9/48/4 1/10/4
f 7/11/3 8/9/3 16/8/3
f 6/12/3 14/15/3 13/5/3
f 3/4/5 11/6/5 12/14/5
f 1/10/15 9/48/15 14/15/15
f 31/16/6 26/27/6 10/17/6
f 23/19/7 24/33/7 8/20/7
f 17/22/8 18/47/8 2/23/8
f 32/25/6 31/16/6 15/18/6
f 26/27/9 25/49/9 9/28/9
f 22/29/10 17/22/10 1/24/10
f 9/28/7 25/49/7 30/31/7
f 24/33/11 20/36/11 4/34/11
f 12/35/6 28/50/6 32/25/6
f 20/36/9 19/51/9 3/37/9
f 27/38/8 28/50/8 12/35/8
f 19/40/12 21/46/12 5/41/12
f 29/43/7 27/52/7 11/44/7
f 21/46/6 22/29/6 6/30/6
f 30/31/7 29/43/7 13/45/7
f 18/47/13 23/19/13 7/21/13
v -5.886021 -0.556146 -164.308395
v -5.886021 4.345558 -164.308395
v 5.812515 -0.556146 -164.308395
v 5.812515 4.345558 -164.308395
v 1.913002 -3.381029 -164.308395
v -1.986509 -3.381029 -164.308395
v -1.986509 7.170441 -164.308395
v 1.913002 7.170441 -164.308395
v -8.006520 -4.852233 -163.200928
v -8.006520 8.641645 -163.200928
v 7.933013 -4.852233 -163.200928
v 7.933013 8.641645 -163.200928
v 3.368342 -4.852234 -164.308395
v -3.441849 -4.852234 -164.308395
v -3.441849 8.641645 -164.308395
v 3.368342 8.641645 -164.308395
v -5.886021 -0.556146 -161.945496
v -5.886021 4.345558 -161.945496
v 5.812515 -0.556146 -161.945496
v 5.812515 4.345558 -161.945496
v 1.913002 -3.381029 -161.945496
v -1.986509 -3.381029 -161.945496
v -1.986509 7.170441 -161.945496
v 1.913002 7.170441 -161.945496
v -8.006520 -4.852233 -159.332977
v -8.006520 8.641645 -159.332977
v 7.933013 -4.852233 -159.332977
v 7.933013 8.641645 -159.332977
v 3.368342 -4.852234 -159.332977
v -3.441849 -4.852234 -159.332977
v -3.441849 8.641645 -159.332977
v 3.368342 8.641645 -159.332977
vt 0.246319 0.286761
vt 0.235149 0.423231
vt 0.227710 0.375102
vt 0.186515 0.136566
vt 0.197265 0.000221
vt 0.204591 0.048304
vt 0.197232 0.423662
vt 0.186304 0.286936
vt 0.204507 0.375411
vt 0.246251 0.136755
vt 0.278639 0.420788
vt 0.227834 0.048532
vt 0.153612 0.421138
vt 0.235412 0.000085
vt 0.119306 0.583994
vt 0.000085 0.559940
vt 0.153442 0.559940
vt 0.352140 0.261181
vt 0.279309 0.240633
vt 0.352140 0.240633
vt 0.352140 0.151170
vt 0.279308 0.000085
vt 0.352140 0.000085
vt 0.000085 0.524054
vt 0.153442 0.524054
vt 0.119307 0.999915
vt 0.000085 0.583994
vt 0.352140 0.701204
vt 0.279309 0.611741
vt 0.352140 0.611741
vt 0.119306 0.000085
vt 0.000085 0.024139
vt 0.000085 0.000085
vt 0.352140 0.350645
vt 0.279309 0.261181
vt 0.119306 0.500000
vt 0.000085 0.500000
vt 0.352140 0.501729
vt 0.279309 0.350645
vt 0.000085 0.084079
vt 0.119306 0.084079
vt 0.352140 0.591193
vt 0.279309 0.501729
vt 0.000085 0.060025
vt 0.153442 0.060025
vt 0.279309 0.591193
vt 0.153442 0.024139
vt 0.279309 0.151170
vt 0.153611 0.002718
vt 0.279139 0.002928
vt 0.000085 0.999915
vt 0.279309 0.701204
vn -0.0000 0.0000 -1.0000
vn -0.4629 0.0000 -0.8864
vn 0.4629 0.0000 -0.8864
vn 0.0000 1.0000 0.0000
vn 0.0000 -1.0000 0.0000
vn 1.0000 0.0000 0.0000
vn -1.0000 0.0000 0.0000
vn 0.5867 0.8098 0.0000
vn -0.5867 -0.8098 0.0000
vn -0.5867 0.8098 0.0000
vn 0.5867 -0.8098 0.0000
vn -0.2337 0.1329 -0.9632
vn 0.2337 -0.1329 -0.9632
vn 0.2337 0.1330 -0.9632
vn -0.2337 -0.1329 -0.9632
s off
f 34/53/16 47/54/16 39/55/16
f 35/56/16 45/57/16 37/58/16
f 48/59/16 36/60/16 40/61/16
f 33/62/17 42/63/17 34/53/17
f 47/54/16 40/61/16 39/55/16
f 45/57/16 38/64/16 37/58/16
f 44/65/18 35/56/18 36/60/18
f 46/66/16 33/62/16 38/64/16
f 42/67/19 63/68/19 47/69/19
f 40/70/20 55/71/20 39/72/20
f 34/73/21 49/74/21 33/75/21
f 47/69/19 64/76/19 48/77/19
f 41/78/22 58/79/22 42/67/22
f 33/80/23 54/81/23 38/82/23
f 41/83/20 62/84/20 57/85/20
f 36/86/24 56/87/24 40/70/24
f 44/88/19 64/76/19 60/89/19
f 35/90/22 52/91/22 36/86/22
f 44/88/21 59/92/21 43/93/21
f 37/94/25 51/95/25 35/90/25
f 43/93/20 61/96/20 45/97/20
f 38/82/19 53/98/19 37/94/19
f 45/97/20 62/84/20 46/99/20
f 39/72/26 50/100/26 34/73/26
f 34/53/27 42/63/27 47/54/27
f 35/56/28 43/101/28 45/57/28
f 48/59/29 44/65/29 36/60/29
f 33/62/17 41/102/17 42/63/17
f 47/54/16 48/59/16 40/61/16
f 45/57/16 46/66/16 38/64/16
f 44/65/18 43/101/18 35/56/18
f 46/66/30 41/102/30 33/62/30
f 42/67/19 58/79/19 63/68/19
f 40/70/20 56/87/20 55/71/20
f 34/73/21 50/100/21 49/74/21
f 47/69/19 63/68/19 64/76/19
f 41/78/22 57/103/22 58/79/22
f 33/80/23 49/104/23 54/81/23
f 41/83/20 46/99/20 62/84/20
f 36/86/24 52/91/24 56/87/24
f 44/88/19 48/77/19 64/76/19
f 35/90/22 51/95/22 52/91/22
f 44/88/21 60/89/21 59/92/21
f 37/94/25 53/98/25 51/95/25
f 43/93/20 59/92/20 61/96/20
f 38/82/19 54/81/19 53/98/19
f 45/97/20 61/96/20 62/84/20
f 39/72/26 55/71/26 50/100/26
