# Blender v2.79 (sub 0) OBJ File: ''
# www.blender.org
v 0.000000 1.000000 0.000000
v -1.000000 0.000000 1.000000
v 1.000000 0.000000 1.000000
v -1.000000 0.000000 -1.000000
v 1.000000 0.000000 -1.000000
v -1.000000 -1.000000 1.000000
v 1.000000 -1.000000 1.000000
v -1.000000 -1.000000 -1.000000
v 1.000000 -1.000000 -1.000000
v 1.000000 0.000000 -1.000000
v 1.000000 0.000000 -1.000000
v 1.000000 0.000000 -1.000000
v 0.000000 1.000000 0.000000
v 0.000000 1.000000 0.000000
v 0.000000 1.000000 0.000000
v -1.000000 0.000000 1.000000
v -1.000000 0.000000 1.000000
v -1.000000 0.000000 1.000000
v -1.000000 0.000000 -1.000000
v -1.000000 0.000000 -1.000000
v -1.000000 0.000000 -1.000000
v 1.000000 0.000000 1.000000
v 1.000000 0.000000 1.000000
v 1.000000 0.000000 1.000000
v -1.000000 -1.000000 -1.000000
v -1.000000 -1.000000 -1.000000
v -1.000000 -1.000000 1.000000
v -1.000000 -1.000000 1.000000
v 1.000000 -1.000000 1.000000
v 1.000000 -1.000000 1.000000
v 1.000000 -1.000000 -1.000000
v 1.000000 -1.000000 -1.000000
vt 0.166721 0.500000
vt 0.333360 0.666640
vt 0.166721 0.833279
vt 0.500000 0.500000
vt 0.333360 0.666640
vt 0.166721 0.500000
vt 0.500000 0.500000
vt 0.500000 0.833279
vt 0.333360 0.666640
vt 0.333360 0.666640
vt 0.500000 0.833279
vt 0.166721 0.833279
vt 0.500000 0.833279
vt 0.166721 0.999918
vt 0.166721 0.833279
vt 0.166721 0.500000
vt 0.500000 0.333361
vt 0.500000 0.500000
vt 0.500000 0.500000
vt 0.666639 0.833279
vt 0.500000 0.833279
vt 0.166721 0.833279
vt 0.000082 0.500000
vt 0.166721 0.500000
vt 0.500000 0.000082
vt 0.166721 0.333361
vt 0.166721 0.000082
vt 0.500000 0.999918
vt 0.166721 0.333361
vt 0.666639 0.500000
vt 0.000082 0.833279
vt 0.500000 0.333361
vn -0.7071 0.7071 0.0000
vn 0.0000 0.7071 0.7071
vn 0.7071 0.7071 0.0000
vn 0.0000 0.7071 -0.7071
vn 0.0000 0.0000 -1.0000
vn 0.0000 0.0000 1.0000
vn 1.0000 0.0000 0.0000
vn -1.0000 0.0000 0.0000
vn 0.0000 -1.0000 0.0000
s off
f 16/1/1 14/2/1 19/3/1
f 22/4/2 15/5/2 17/6/2
f 23/7/3 10/8/3 13/9/3
f 1/10/4 11/11/4 20/12/4
f 5/13/5 26/14/5 21/15/5
f 2/16/6 29/17/6 24/18/6
f 3/19/7 31/20/7 12/21/7
f 4/22/8 6/23/8 18/24/8
f 32/25/9 27/26/9 25/27/9
f 5/13/5 9/28/5 26/14/5
f 2/16/6 28/29/6 29/17/6
f 3/19/7 30/30/7 31/20/7
f 4/22/8 8/31/8 6/23/8
f 32/25/9 7/32/9 27/26/9
